<svg xmlns="http://www.w3.org/2000/svg" width="1100" height="430" viewBox="0 0 1100 430">
<rect width="100%" height="100%" fill="#08111f"/>
<text x="54" y="38" fill="#eef6ff" font-family="Arial" font-size="22">v1.1 FOMC narrative density timeline</text>
<line x1="55" y1="330" x2="1055" y2="330" stroke="#30415f"/>
<line x1="55" y1="80" x2="55" y2="330" stroke="#30415f"/>
<polyline fill="none" stroke="#75e0a7" stroke-width="3" points="55.0,271.9 66.6,117.9 78.3,250.2 89.9,123.8 101.5,255.5 113.1,148.0 124.8,248.0 136.4,147.0 148.0,251.1 159.7,154.0 171.3,237.3 182.9,162.5 194.5,229.3 206.2,189.3 217.8,248.9 229.4,152.9 241.0,281.6 252.7,151.2 264.3,238.9 275.9,166.8 287.6,234.6 299.2,143.5 310.8,234.8 322.4,179.0 334.1,210.2 345.7,141.7 357.3,215.6 369.0,129.2 380.6,213.0 392.2,123.1 403.8,207.3 415.5,123.1 427.1,220.9 438.7,102.6 450.3,184.3 462.0,93.6 473.6,197.4 485.2,88.6 496.9,178.4 508.5,97.2 520.1,195.0 531.7,90.4 543.4,209.1 555.0,94.7 566.6,209.9 578.3,99.7 589.9,189.4 601.5,97.0 613.1,202.7 624.8,103.4 636.4,237.3 648.0,98.3 659.7,220.6 671.3,143.1 682.9,192.5 694.5,98.0 706.2,201.4 717.8,122.9 729.4,186.0 741.0,86.4 752.7,222.7 764.3,102.2 775.9,209.8 787.6,124.1 799.2,244.4 810.8,91.3 822.4,229.8 834.1,171.8 845.7,210.6 857.3,80.5 869.0,201.0 880.6,121.5 892.2,215.0 903.8,133.1 915.5,330.0 927.1,205.2 938.7,80.0 950.3,242.9 962.0,116.7 973.6,234.3 985.2,130.6 996.9,235.0 1008.5,118.9 1020.1,204.2 1031.7,117.7 1043.4,226.7 1055.0,133.0"/>
<text x="60" y="385" fill="#b8c7d9" font-family="Arial" font-size="13">2021-01-27 → 2026-04-29; y=narrative density per 1k words</text>
</svg>